<svg xmlns="http://www.w3.org/2000/svg" width="17" height="16" viewBox="0 0 17 16">
    <path fill="#282F36" fill-rule="nonzero" d="M5.126 13.144a1.931 1.931 0 0 1-.352-.757l-.359-1.71L1.836.917H.42C.188.918 0 .66 0 .425 0 .19.188 0 .42 0h1.932c.194 0 .362.133.408.323l.913 3.35H15.61c.032 0 .918 0 .918.918l-.918 5.51c-.082.45-.394.918-.86.918H5.51l.087 1.192c.063.304.332.644.64.644h8.094c.034 0 .068.005.1.015a1.38 1.38 0 0 1 1.179 1.363c0 .76-.618 1.377-1.377 1.377a1.379 1.379 0 0 1-1.299-1.836H7.267a1.379 1.379 0 0 1-1.299 1.836 1.379 1.379 0 0 1-.842-2.466z"/>
</svg>
