<svg xmlns="http://www.w3.org/2000/svg" width="24" height="24" viewBox="0 0 24 24">
    <path fill="#D4070E" fill-rule="nonzero" d="M12.025 22c-.292 0-.536-.222-.607-.552-.01-.057-.459-2.852-2.62-6.116l-.351-.502C6.817 12.496 6 11.325 6 9.126 6 5.69 8.624 3 11.974 3 15.297 3 18 5.748 18 9.126c0 2.105-1.352 4.083-2.437 5.673-.126.184-.248.363-.363.535-2.216 3.272-2.558 6.04-2.561 6.067-.078.377-.322.599-.614.599zm-.013-15.472c-1.417 0-2.57 1.204-2.57 2.685 0 1.519 1.177 2.801 2.57 2.801 1.46 0 2.647-1.258 2.647-2.801 0-1.53-1.138-2.685-2.647-2.685z"/>
</svg>
