<svg xmlns="http://www.w3.org/2000/svg" width="23" height="11" viewBox="0 0 23 11">
    <path fill="#FFF" fill-rule="nonzero" d="M.374 0A.474.474 0 0 0 0 .48v2.87c0 .2.12.379.302.448L3.68 5.112v5.41a.47.47 0 0 0 .46.478h10.58c.15 0 .288-.08.374-.21l6.31-9.355h1.136A.47.47 0 0 0 23 .957a.47.47 0 0 0-.46-.478H20.7a.455.455 0 0 0-.244.075L15.18 3.93v-.583a.47.47 0 0 0-.46-.478h-4.6v-.956h1.38a.47.47 0 0 0 .46-.479V.48A.47.47 0 0 0 11.5 0H7.82a.47.47 0 0 0-.46.478v.956a.47.47 0 0 0 .46.479H9.2v.956H4.428l-.791-1.644a.462.462 0 0 0-.273-.239L.604.031A.457.457 0 0 0 .417 0H.374zM.92 1.138l1.97.687.79 1.644v.628L.92 3.02V1.137zm21.16 3.646s-.92 1.862-.92 2.391c0 .529.411.957.92.957.509 0 .92-.428.92-.957 0-.529-.92-2.391-.92-2.391z"/>
</svg>
