<svg xmlns="http://www.w3.org/2000/svg" width="180" height="133" viewBox="0 0 180 133">
    <path fill="#282F36" fill-rule="nonzero" d="M164.865 86.61l-80.95 7.998-6.613 12.112h82.09c1.824 0 3.42 1.6 3.42 3.428v.457c4.56 1.6 7.981 5.941 7.981 10.969 0 6.399-5.016 11.426-11.401 11.426s-11.402-5.027-11.402-11.426c0-3.2 1.14-5.942 3.193-7.998H97.368c2.052 2.056 3.193 4.799 3.193 7.998 0 6.399-5.017 11.426-11.402 11.426-6.385 0-11.401-5.027-11.401-11.426 0-3.2 1.14-5.942 3.192-7.998h-9.577c-1.14 0-2.28-.457-2.964-1.6-.685-1.143-.685-2.285 0-3.428l10.033-17.596-1.596-4.8-20.067-64.67-4.56-14.626h-20.98c-1.823 0-3.42-1.6-3.42-3.428C27.82 1.6 29.416 0 31.24 0h23.488c1.368 0 2.736 1.143 3.192 2.514l4.56 14.625h114.243c.912 0 2.052.457 2.508 1.143.684.685.913 1.828.684 2.742L167.83 83.868c-.228 1.37-1.368 2.513-2.964 2.742zM3.42 23.995c-1.824 0-3.42-1.6-3.42-3.428 0-1.828 1.596-3.428 3.42-3.428h41.274c1.824 0 3.192 1.6 3.192 3.428 0 1.828-1.596 3.428-3.42 3.428H3.42zm17.103 21.024c0-1.828 1.596-3.428 3.42-3.428h23.715c1.824 0 3.42 1.6 3.42 3.428 0 1.828-1.596 3.428-3.42 3.428H23.943c-1.824 0-3.42-1.6-3.42-3.428zm32.38 18.967c1.824 0 3.42 1.371 3.42 3.428 0 1.828-1.596 3.428-3.42 3.428H3.42c-1.824 0-3.42-1.6-3.42-3.428 0-1.828 1.596-3.428 3.42-3.428h49.483zm0 18.282c1.824 0 3.42 1.6 3.192 3.428 0 1.828-1.596 3.428-3.42 3.428H28.048c-1.825 0-3.42-1.6-3.42-3.428 0-1.828 1.595-3.428 3.42-3.428h24.855z" opacity=".1"/>
</svg>
