<svg xmlns="http://www.w3.org/2000/svg" width="40" height="40" viewBox="0 0 40 40">
    <g fill="none" fill-rule="nonzero">
        <g fill="#FF9800">
            <path d="M29.579 29.579S23.42 27.526 20 27.526c-3.421 0-9.579 2.053-9.579 2.053s2.053-6.842 2.053-9.579c0-2.737-2.053-9.579-2.053-9.579S16.58 12.474 20 12.474c3.421 0 9.579-2.053 9.579-2.053S27.526 17.263 27.526 20c0 2.737 2.053 9.579 2.053 9.579z"/>
            <path d="M33 20s-5.626 3.27-7.678 5.322C23.269 27.374 20 33 20 33s-2.927-5.283-5.322-7.678C12.283 22.927 7 20 7 20s5.625-3.268 7.678-5.321C16.732 12.626 20 7 20 7s3.27 5.626 5.322 7.679S33 20 33 20z"/>
        </g>
        <path fill="#FFEB3B" d="M13 20a7 7 0 0 0 7 7 7 7 0 0 0 7-7 7 7 0 0 0-7-7 7 7 0 0 0-7 7"/>
    </g>
</svg>
