<svg xmlns="http://www.w3.org/2000/svg" width="19" height="15" viewBox="0 0 19 15">
    <path fill="#1DA1F2" fill-rule="evenodd" d="M0 13.317a11.25 11.25 0 0 0 5.975 1.704c7.171 0 11.092-5.78 11.092-10.79 0-.165-.004-.327-.012-.49A7.79 7.79 0 0 0 19 1.778a7.875 7.875 0 0 1-2.238.595A3.822 3.822 0 0 0 18.476.277a7.963 7.963 0 0 1-2.476.92A3.946 3.946 0 0 0 13.155 0c-2.153 0-3.9 1.696-3.9 3.79 0 .299.036.587.103.865A11.166 11.166 0 0 1 1.323.693 3.701 3.701 0 0 0 .795 2.6c0 1.315.688 2.476 1.734 3.156a3.939 3.939 0 0 1-1.766-.474v.048c0 1.836 1.345 3.37 3.126 3.718-.326.088-.67.133-1.026.133-.251 0-.496-.023-.733-.068.495 1.508 1.935 2.604 3.64 2.634a7.95 7.95 0 0 1-4.84 1.622c-.314 0-.624-.015-.93-.052"/>
</svg>
