<svg xmlns="http://www.w3.org/2000/svg" width="24" height="14" viewBox="0 0 24 14">
    <path fill="#507299" fill-rule="evenodd" d="M11.743 13.024h1.434s.433-.045.654-.272c.205-.21.198-.603.198-.603s-.028-1.838.865-2.11c.88-.266 2.012 1.778 3.21 2.564.907.595 1.596.464 1.596.464l3.205-.043s1.676-.098.881-1.357c-.065-.103-.463-.932-2.383-2.634-2.01-1.782-1.74-1.494.68-4.577 1.474-1.876 2.064-3.022 1.88-3.513-.176-.468-1.26-.344-1.26-.344l-3.61.02s-.267-.034-.465.08c-.193.11-.318.37-.318.37s-.572 1.452-1.333 2.687c-1.607 2.607-2.25 2.744-2.513 2.582-.61-.377-.458-1.514-.458-2.323 0-2.526.402-3.58-.78-3.852-.393-.09-.682-.15-1.685-.16-1.287-.013-2.377.003-2.994.292-.411.192-.728.62-.535.645.238.03.779.139 1.065.511.37.481.357 1.56.357 1.56s.213 2.974-.496 3.344c-.487.252-1.154-.264-2.587-2.63a21.555 21.555 0 0 1-1.288-2.55s-.107-.25-.297-.384C4.534.629 4.212.577 4.212.577L.782.599S.268.613.079.826c-.169.19-.014.584-.014.584s2.685 6 5.724 9.024c2.788 2.773 5.954 2.59 5.954 2.59"/>
</svg>
