<svg xmlns="http://www.w3.org/2000/svg" width="40" height="40" viewBox="0 0 40 40">
    <g fill="#2196F3" fill-rule="nonzero">
        <path d="M8 20h2v7H8z"/>
        <path d="M5.476 22.588l1.014-1.724 6.034 3.548-1.014 1.724z"/>
        <path d="M6.437 26.085l-.979-1.744 6.105-3.426.979 1.744zM17 27h2v7h-2z"/>
        <path d="M14.476 29.588l1.014-1.724 6.034 3.548-1.014 1.724z"/>
        <path d="M15.437 33.085l-.979-1.744 6.105-3.426.979 1.744zM14 11h2v7h-2z"/>
        <path d="M11.476 13.588l1.014-1.724 6.034 3.548-1.014 1.724z"/>
        <path d="M12.437 17.085l-.979-1.744 6.105-3.426.979 1.744zM27 24h2v5h-2z"/>
        <path d="M29.693 24.406l.977 1.745-4.363 2.443-.977-1.745z"/>
        <path d="M25.339 26.092l1.015-1.723 4.307 2.54-1.015 1.722zM28 6h2v11h-2z"/>
        <path d="M33.055 7.652l1.095 1.674-9.205 6.022-1.095-1.674z"/>
        <path d="M23.86 9.301l1.103-1.668 9.177 6.066-1.103 1.668z"/>
    </g>
</svg>
