<svg xmlns="http://www.w3.org/2000/svg" width="181" height="181" viewBox="0 0 181 181">
    <path fill="#93979A" fill-opacity=".123" fill-rule="nonzero" d="M107.469 0a5.667 5.667 0 0 0-5.656 5.656v22.625H48.078c-23.387 0-42.422 19.035-42.422 42.422v59.91C2.376 131.784 0 134.899 0 138.578c0 4.673 3.811 8.484 8.484 8.484h54.817l3.304 6.629a8.461 8.461 0 0 0 7.59 4.684h4.993v19.797A2.82 2.82 0 0 0 82.016 181a2.82 2.82 0 0 0 2.828-2.828v-19.797h16.969v19.797A2.82 2.82 0 0 0 104.64 181a2.82 2.82 0 0 0 2.828-2.828v-19.797h4.993c3.226 0 6.131-1.8 7.59-4.684l3.303-6.629h49.16c4.674 0 8.485-3.81 8.485-8.484 0-3.679-2.375-6.794-5.656-7.965v-59.91c0-23.387-19.035-42.422-42.422-42.422h-14.14v-8.429l12.416-2.486c2.63-.54 4.552-2.86 4.552-5.545V5.656A5.667 5.667 0 0 0 130.094 0h-22.625zM107 6h23v6.18l-12.623 2.504c-2.673.531-4.627 2.857-4.627 5.549V66a12.304 12.304 0 0 0-5.75 0V6zM48.017 34C65.48 34 80.13 46.077 84 62.235H30.932c-4.705 0-8.542 3.805-8.542 8.47v56.471c0 .993.2 1.942.523 2.824H11V70.706C11 50.466 27.607 34 48.017 34zM69 34h32.808v34.897a11.126 11.126 0 0 0-2.841 7.456c0 3.022 1.199 5.846 3.33 7.985 2.153 2.118 4.994 3.31 8.035 3.31 3.041 0 5.883-1.192 8.036-3.31 2.13-2.14 3.33-4.963 3.33-7.985 0-2.768-1-5.393-2.842-7.456V34h14.207C153.44 34 170 50.456 170 70.706v2.823h-17.048a2.824 2.824 0 1 0 0 5.647H170V130H90.443V70.706C90.443 55.01 81.786 41.313 69 34zM30.727 68h53.13c.077.926.143 1.841.143 2.789V90.56l-12.376 8.9c-.975.719-2.3.719-3.286 0L28 70.407c.186-1.35 1.314-2.407 2.727-2.407zm79.773 3c.988 0 1.923.248 2.75.777.408.216.795.518 1.128.853A5.459 5.459 0 0 1 116 76.527c0 1.468-.58 2.871-1.622 3.897-1.02 1.047-2.45 1.576-3.878 1.576-1.429 0-2.857-.529-3.878-1.576A5.459 5.459 0 0 1 105 76.527c0-1.468.58-2.871 1.622-3.897.333-.335.72-.637 1.128-.853.827-.529 1.762-.777 2.75-.777zm19.333 3c-1.571 0-2.833 1.336-2.833 3s1.262 3 2.833 3h11.334c1.571 0 2.833-1.336 2.833-3s-1.262-3-2.833-3h-11.334zM28 77l37.73 27.198a8.574 8.574 0 0 0 5.02 1.617 8.549 8.549 0 0 0 5.02-1.617L85 97.551V130H30.85a2.849 2.849 0 0 1-2.85-2.836V77zm74 36c-1.664 0-3 1.225-3 2.75v5.5c0 1.525 1.336 2.75 3 2.75s3-1.225 3-2.75v-5.5c0-1.525-1.336-2.75-3-2.75zm14 0c-1.664 0-3 1.225-3 2.75v5.5c0 1.525 1.336 2.75 3 2.75s3-1.225 3-2.75v-5.5c0-1.525-1.336-2.75-3-2.75zm14 0c-1.664 0-3 1.225-3 2.75v5.5c0 1.525 1.336 2.75 3 2.75s3-1.225 3-2.75v-5.5c0-1.525-1.336-2.75-3-2.75zm14 0c-1.664 0-3 1.225-3 2.75v5.5c0 1.525 1.336 2.75 3 2.75s3-1.225 3-2.75v-5.5c0-1.525-1.336-2.75-3-2.75zm15 0c-1.664 0-3 1.225-3 2.75v5.5c0 1.525 1.336 2.75 3 2.75s3-1.225 3-2.75v-5.5c0-1.525-1.336-2.75-3-2.75zM8.833 136h164.334c1.56 0 2.833 1.348 2.833 3s-1.273 3-2.833 3H8.833C7.273 142 6 140.652 6 139s1.273-3 2.833-3zM70 147h47l-2.037 4.348c-.47 1.02-1.434 1.652-2.497 1.652H74.534c-1.063 0-2.026-.633-2.497-1.652L70 147z"/>
</svg>
