<svg width="20" height="20" viewBox="0 0 20 20" fill="none" xmlns="http://www.w3.org/2000/svg">
<path d="M8.41668 16.7499C10.2656 16.7495 12.0613 16.1306 13.5177 14.9916L17.3604 18.8343C17.7672 19.241 18.4266 19.241 18.8333 18.8343C19.2401 18.4276 19.2401 17.7681 18.8333 17.3614L14.9906 13.5187C16.1302 12.0621 16.7496 10.266 16.75 8.41658C16.75 3.82179 13.0115 0.083252 8.41668 0.083252C3.82189 0.083252 0.0833435 3.82179 0.0833435 8.41658C0.0833435 13.0114 3.82189 16.7499 8.41668 16.7499ZM8.41668 2.16659C11.8636 2.16659 14.6667 4.96971 14.6667 8.41658C14.6667 11.8635 11.8636 14.6666 8.41668 14.6666C4.9698 14.6666 2.16668 11.8635 2.16668 8.41658C2.16668 4.96971 4.9698 2.16659 8.41668 2.16659Z" fill="#282F36"/>
</svg>
