<svg xmlns="http://www.w3.org/2000/svg" width="190" height="55" viewBox="0 0 190 55">
    <g fill="none" fill-rule="evenodd" opacity=".6">
        <rect width="189" height="54" x=".5" y=".5" stroke="#FFF" rx="10"/>
        <path fill="#FFF" d="M42.738 18.974c3.582 0 5.872 3.451 5.872 3.451s-3.494 1.888-3.494 5.989c0 4.867 4.39 6.283 4.39 6.283s-3.465 8.186-7.356 8.186c-2.187 0-2.333-1.253-5.24-1.253-2.525 0-3.377 1.253-5.3 1.253-3.67 0-8.412-7.98-8.412-14.47 0-6.74 4.8-9.44 7.81-9.44 2.643 0 3.743 1.55 5.872 1.55 1.791 0 3.201-1.55 5.858-1.55zm-.616-6.874c.528 3.304-2.482 7.39-6.078 7.257-.529-4.204 3.347-7.035 6.078-7.257zm27.154 8.596h2.444l6.493 16.547H75.77l-1.815-4.983h-7.029l-1.861 4.983h-2.258l6.47-16.547zm-1.652 9.71h5.632l-2.77-7.717h-.046l-2.816 7.717zm11.962-5.145h1.979v1.622h.046a2.957 2.957 0 0 1 1.536-1.448c.698-.301 1.466-.452 2.304-.452.931 0 1.742.17 2.432.51.69.34 1.265.8 1.723 1.379.457.58.803 1.248 1.035 2.005.233.757.35 1.56.35 2.41a8.42 8.42 0 0 1-.338 2.41 5.666 5.666 0 0 1-1.024 1.982 4.825 4.825 0 0 1-1.722 1.332c-.69.325-1.494.487-2.41.487a5.97 5.97 0 0 1-2.07-.394 4.234 4.234 0 0 1-1.013-.568 3.178 3.178 0 0 1-.803-.892h-.046v6.165h-1.979V25.26zm9.31 5.887c0-.556-.074-1.101-.221-1.634A4.401 4.401 0 0 0 88 28.089a3.303 3.303 0 0 0-1.164-.997c-.473-.247-1.028-.37-1.664-.37-.667 0-1.233.13-1.699.393a3.4 3.4 0 0 0-1.14 1.032 4.303 4.303 0 0 0-.64 1.448 6.92 6.92 0 0 0-.198 1.646c0 .587.07 1.154.21 1.703.139.548.36 1.031.663 1.448.302.418.694.754 1.175 1.009.48.254 1.063.382 1.745.382.683 0 1.253-.131 1.711-.394.458-.263.826-.61 1.105-1.043.28-.433.481-.927.606-1.483a7.85 7.85 0 0 0 .186-1.715zm4.492-5.887h1.978v1.622h.046a2.957 2.957 0 0 1 1.536-1.448c.699-.301 1.467-.452 2.305-.452.93 0 1.741.17 2.432.51.69.34 1.264.8 1.722 1.379.458.58.803 1.248 1.036 2.005.232.757.349 1.56.349 2.41a8.42 8.42 0 0 1-.338 2.41 5.666 5.666 0 0 1-1.024 1.982 4.825 4.825 0 0 1-1.722 1.332c-.69.325-1.493.487-2.409.487a5.97 5.97 0 0 1-2.071-.394 4.234 4.234 0 0 1-1.013-.568 3.178 3.178 0 0 1-.803-.892h-.046v6.165h-1.978V25.26zm9.31 5.887c0-.556-.075-1.101-.222-1.634a4.401 4.401 0 0 0-.675-1.425 3.303 3.303 0 0 0-1.164-.997c-.473-.247-1.028-.37-1.664-.37-.667 0-1.233.13-1.699.393a3.4 3.4 0 0 0-1.14 1.032 4.303 4.303 0 0 0-.64 1.448 6.92 6.92 0 0 0-.198 1.646c0 .587.07 1.154.21 1.703.14.548.36 1.031.663 1.448.302.418.694.754 1.175 1.009.481.254 1.063.382 1.746.382.682 0 1.253-.131 1.71-.394.458-.263.826-.61 1.106-1.043.279-.433.48-.927.605-1.483a7.85 7.85 0 0 0 .186-1.715zm20.829-5.609c-.124-1.19-.555-2.05-1.292-2.584-.737-.533-1.68-.8-2.827-.8-.466 0-.924.047-1.374.14-.45.092-.85.247-1.198.463-.35.217-.629.506-.838.87-.21.362-.314.814-.314 1.355 0 .51.151.923.454 1.24.302.317.706.576 1.21.776.504.201 1.074.367 1.71.499.637.131 1.284.274 1.944.428.66.155 1.307.336 1.943.545a6.42 6.42 0 0 1 1.71.846c.505.355.908.803 1.211 1.344.303.54.454 1.22.454 2.04 0 .88-.198 1.633-.594 2.26a4.874 4.874 0 0 1-1.524 1.529 6.65 6.65 0 0 1-2.083.857 10.143 10.143 0 0 1-4.934-.08 6.535 6.535 0 0 1-2.188-1.055 5.004 5.004 0 0 1-1.49-1.808c-.364-.734-.546-1.603-.546-2.607h2.094c0 .695.136 1.294.408 1.796.271.502.628.915 1.07 1.24.442.324.958.564 1.548.718.59.155 1.195.232 1.815.232.497 0 .997-.046 1.501-.14a4.435 4.435 0 0 0 1.362-.474c.403-.224.73-.53.977-.916.249-.386.373-.88.373-1.483 0-.572-.151-1.035-.454-1.39-.303-.356-.706-.645-1.21-.87a8.887 8.887 0 0 0-1.71-.544c-.637-.14-1.285-.282-1.944-.429a26.527 26.527 0 0 1-1.944-.51 7.048 7.048 0 0 1-1.71-.765 3.671 3.671 0 0 1-1.21-1.228c-.303-.502-.454-1.132-.454-1.889 0-.834.17-1.556.512-2.167a4.464 4.464 0 0 1 1.361-1.506 6.123 6.123 0 0 1 1.932-.88 8.558 8.558 0 0 1 2.223-.29c.853 0 1.644.1 2.374.3.729.202 1.369.518 1.92.951.55.433.985.977 1.303 1.634.318.657.493 1.44.524 2.352h-2.095zm7.89-.278h2.397V27h-2.397v7.44c0 .231.02.417.058.556.039.139.112.247.221.324a.98.98 0 0 0 .454.151c.194.023.446.035.756.035h.908v1.738H132.3c-.512 0-.95-.035-1.315-.104-.364-.07-.66-.197-.884-.383-.225-.185-.392-.448-.5-.788-.11-.34-.164-.788-.164-1.344V27h-2.048v-1.738h2.048V21.67h1.979v3.592zm3.933 6.003c0-.881.124-1.704.372-2.469.249-.764.621-1.429 1.117-1.993a5.261 5.261 0 0 1 1.84-1.332c.728-.325 1.566-.487 2.513-.487.962 0 1.803.162 2.525.487.721.324 1.33.768 1.827 1.332a5.586 5.586 0 0 1 1.117 1.993 7.95 7.95 0 0 1 .372 2.469c0 .88-.124 1.7-.372 2.456a5.601 5.601 0 0 1-1.117 1.982 5.163 5.163 0 0 1-1.827 1.32c-.722.318-1.563.476-2.525.476-.947 0-1.785-.158-2.514-.475a5.138 5.138 0 0 1-1.839-1.321 5.601 5.601 0 0 1-1.117-1.982 7.84 7.84 0 0 1-.372-2.456zm2.095 0c0 .726.097 1.37.29 1.935.194.564.462 1.035.803 1.414.342.378.741.668 1.199.869.458.2.943.3 1.455.3.512 0 .997-.1 1.454-.3.458-.201.857-.49 1.199-.87.341-.378.609-.85.803-1.413.194-.564.29-1.21.29-1.935 0-.726-.096-1.372-.29-1.935a4.172 4.172 0 0 0-.803-1.426 3.418 3.418 0 0 0-1.199-.88 3.58 3.58 0 0 0-1.454-.302c-.512 0-.997.1-1.455.302-.458.2-.857.494-1.199.88a4.172 4.172 0 0 0-.802 1.426c-.194.563-.291 1.209-.291 1.935zm11.846-6.003h1.862v2.526h.046c.481-.973 1.07-1.691 1.77-2.155.697-.464 1.582-.68 2.652-.649v2.086c-.791 0-1.466.108-2.025.324-.558.217-1.008.533-1.35.95-.34.418-.589.924-.744 1.519-.155.594-.233 1.278-.233 2.05v5.331h-1.978V25.261zm17.665 8.181c-.264 1.344-.846 2.356-1.746 3.036-.9.68-2.033 1.02-3.398 1.02-.962 0-1.796-.155-2.502-.464a4.931 4.931 0 0 1-1.78-1.297 5.506 5.506 0 0 1-1.082-1.994 9.567 9.567 0 0 1-.408-2.526c0-.911.14-1.746.42-2.503a5.977 5.977 0 0 1 1.174-1.97 5.332 5.332 0 0 1 1.793-1.297 5.491 5.491 0 0 1 2.269-.464c1.07 0 1.959.22 2.665.66.706.44 1.272 1.001 1.699 1.68.426.68.721 1.422.884 2.226a9.5 9.5 0 0 1 .198 2.294h-9.007a4.737 4.737 0 0 0 .186 1.495c.14.471.365.888.675 1.251.31.363.706.653 1.187.87.48.216 1.047.324 1.699.324.838 0 1.524-.193 2.06-.58.535-.386.888-.973 1.059-1.76h1.955zm-1.909-3.337a4.016 4.016 0 0 0-.314-1.321 3.375 3.375 0 0 0-.722-1.078 3.397 3.397 0 0 0-2.432-.985c-.512 0-.973.09-1.384.267a3.198 3.198 0 0 0-1.06.73 3.49 3.49 0 0 0-.698 1.077c-.17.41-.271.846-.302 1.31h6.912z"/>
    </g>
</svg>
