<svg xmlns="http://www.w3.org/2000/svg" width="190" height="55" viewBox="0 0 190 55">
    <g fill="none" fill-rule="evenodd" opacity=".6">
        <rect width="188.2" height="54" x=".5" y=".5" stroke="#FFF" rx="10"/>
        <path fill="#FFF" d="M125.219 31.822l-1.262 1.205c-.292.162-.582.35-.871.484-.877.403-1.768.504-2.56.504-.843 0-2.165-.055-3.513-1.042-1.873-1.335-2.692-3.63-2.692-5.628 0-4.14 3.33-6.17 6.047-6.17.95 0 1.925.24 2.718.748 1.318.882 1.659 2.028 1.848 2.642l-6.203 2.536-2.032.16c.658 3.394 2.927 5.368 5.435 5.368 1.253 0 2.182-.414 3.036-.84 0 0 .17-.09.049.033zm-3.743-6.751l-4.803 2.109c-.027-.48-.08-.959-.08-1.41 0-2.884 1.98-3.714 3.033-3.714 1.423 0 2.616 1.231 2.616 2.298 0 .372-.262.532-.766.717zm-9.228 6.544c0 1.038.183 1.199 1.05 1.28.453.054.903.078 1.349.132l-.976.588h-4.65c.61-.801.714-.881.714-1.414v-.596l-.01-15.874h-2.053l1.976-.964h3.774c-.818.48-1.063.772-1.167 1.706l-.007 15.142zm-7.212-9.13c.606.504 1.87 1.574 1.87 3.602 0 1.978-1.1 2.91-2.212 3.792-.341.347-.74.724-.74 1.306 0 .59.399.911.686 1.15l.953.745c1.159.99 2.215 1.897 2.215 3.74 0 2.512-2.402 5.044-6.941 5.044-3.824 0-5.672-1.843-5.672-3.818 0-.961.473-2.323 2.034-3.256 1.635-1.012 3.851-1.147 5.039-1.226-.371-.484-.794-.991-.794-1.819 0-.453.134-.722.264-1.04-.288.027-.58.056-.844.056-2.798 0-4.38-2.113-4.38-4.194 0-1.228.553-2.59 1.69-3.578 1.505-1.253 3.299-1.469 4.724-1.469h5.438l-1.69.965h-1.64zm-1.87 11.853c-.216-.029-.346-.029-.607-.029-.24 0-1.665.052-2.769.427-.584.216-2.272.855-2.272 2.751 0 1.893 1.823 3.258 4.642 3.258 2.534 0 3.879-1.23 3.879-2.883 0-1.362-.87-2.08-2.872-3.524zm.76-5.073c-.418.422-1.13.747-1.791.747-2.267 0-3.298-2.965-3.298-4.753 0-.694.134-1.415.58-1.972.42-.537 1.162-.884 1.846-.884 2.194 0 3.325 2.99 3.325 4.91 0 .484-.053 1.335-.663 1.952zm-15.25 4.695c-4.194 0-6.438-3.305-6.438-6.297 0-3.497 2.82-6.488 6.834-6.488 3.88 0 6.309 3.073 6.309 6.3 0 3.15-2.402 6.485-6.705 6.485zm3.3-2.16c-.607.853-1.66 1.358-2.693 1.358-3.198 0-4.487-4.35-4.487-6.988 0-1.152.184-2.326 1.215-3.26a3.656 3.656 0 0 1 2.378-.907c3.273 0 4.38 4.485 4.38 6.836 0 1.04-.155 2.106-.793 2.96zm-17.343 2.16c-4.195 0-6.436-3.305-6.436-6.297 0-3.497 2.823-6.488 6.834-6.488 3.877 0 6.304 3.073 6.304 6.3 0 3.15-2.398 6.485-6.702 6.485zm3.3-2.16c-.608.853-1.66 1.358-2.69 1.358-3.193 0-4.487-4.35-4.487-6.988 0-1.152.183-2.326 1.215-3.26a3.64 3.64 0 0 1 2.374-.907c3.27 0 4.38 4.485 4.38 6.836 0 1.04-.158 2.106-.791 2.96zM66.52 33.033l-3.537.82c-1.434.228-2.72.43-4.084.43-6.823 0-9.423-5.082-9.423-9.06 0-4.857 3.684-9.36 9.992-9.36a14.3 14.3 0 0 1 3.789.521c1.854.527 2.721 1.177 3.263 1.557l-2.055 1.975-.866.196.618-.996c-.837-.826-2.375-2.353-5.294-2.353-3.903 0-6.847 3.002-6.847 7.384 0 4.707 3.361 9.134 8.753 9.134 1.584 0 2.4-.322 3.14-.622v-4.035l-3.735.203 1.98-1.076h5.242l-.641.624c-.173.15-.196.2-.245.4-.026.227-.05.952-.05 1.207v3.051zm66.305-1.097v6.8h-1.335V21.432h1.335v1.97c.87-1.273 2.458-2.282 4.304-2.282 3.31 0 5.54 2.54 5.54 6.562 0 3.994-2.23 6.588-5.54 6.588-1.742 0-3.303-.91-4.304-2.334zm8.41-4.254c0 3.035-1.562 5.367-4.331 5.367-1.72 0-3.364-1.417-4.079-2.612v-5.539c.715-1.192 2.36-2.56 4.079-2.56 2.769 0 4.33 2.313 4.33 5.344zm3.256-11.028h1.334v17.304h-1.334V16.654zm16.312 20.963c.285.13.772.208 1.081.208.817 0 1.385-.338 1.896-1.53l.973-2.233-5.258-12.63h1.49l4.51 10.945 4.466-10.945h1.51l-6.413 15.28c-.665 1.575-1.712 2.332-3.15 2.332-.432 0-1.001-.077-1.334-.18l.229-1.247zm-3.9-3.696a23.5 23.5 0 0 1-.205-1.137 7.714 7.714 0 0 1-.064-.976c-.457.68-1.106 1.245-1.934 1.69-.829.449-1.616.669-2.696.669-1.3 0-2.31-.324-3.03-.98-.718-.656-1.08-1.545-1.08-2.67 0-1.122.524-2.033 1.567-2.73 1.043-.7 2.391-1.048 4.06-1.048h3.113v-1.557c0-.896-.302-1.601-.905-2.112-.605-.512-1.454-.77-2.555-.77-1.006 0-1.823.236-2.444.696-.617.47-.927 1.053-.927 1.754h-1.366l-.028-.067c-.05-.946.378-1.776 1.288-2.493.905-.716 2.091-1.076 3.551-1.076 1.455 0 2.633.355 3.52 1.062.887.7 1.332 1.712 1.332 3.035v6.179c0 .444.021.872.076 1.29.056.419.146.836.266 1.24h-1.538zm-4.735-.984c1.133 0 1.948-.257 2.781-.764.827-.504 1.39-1.161 1.685-1.957V27.81h-3.128c-1.195 0-2.184.267-2.962.807-.78.538-1.174 1.189-1.174 1.946 0 .714.25 1.285.747 1.718.5.438 1.181.655 2.05.655zM17.21 39.562c-.43-.116-.71-.543-.71-1.203V16.573c0-.61.237-1.023.612-1.173l10.706 12.141-10.609 12.02zm1.473-.463l12.887-7.304-3.139-3.559-9.748 10.863zm12.975-15.91l-12.707-7.203 9.499 10.84 3.208-3.636zm.863.49l4.978 2.821c.942.535.95 1.396 0 1.935l-5.104 2.893-3.33-3.8 3.456-3.85z"/>
    </g>
</svg>
