<svg width="36" height="36" viewBox="0 0 36 36" fill="none" xmlns="http://www.w3.org/2000/svg">
<path d="M18.1613 0C10.9041 0 5 6.01018 5 13.3977C5 17.53 7.08997 22.5456 11.2121 28.3052C14.2286 32.5203 17.2011 35.5264 17.3262 35.6524C17.5562 35.8839 17.8586 36 18.1615 36C18.4555 36 18.7498 35.8905 18.9779 35.6707C19.1032 35.55 22.0833 32.6656 25.1056 28.5087C29.2309 22.8344 31.3227 17.7504 31.3227 13.3977C31.3225 6.01018 25.4183 0 18.1613 0ZM18.1613 19.1817C14.6133 19.1817 11.7269 16.2952 11.7269 12.7473C11.7269 9.19942 14.6134 6.31295 18.1613 6.31295C21.7092 6.31295 24.5956 9.19942 24.5956 12.7473C24.5956 16.2952 21.7091 19.1817 18.1613 19.1817Z" fill="#7AD278"/>
</svg>
