<svg width="16" height="16" viewBox="0 0 16 16" fill="none" xmlns="http://www.w3.org/2000/svg">
<path d="M1.33337 3.33325L6.00004 1.33325L10 3.33325L14.202 1.53259C14.2528 1.51084 14.3081 1.50203 14.3631 1.50695C14.418 1.51186 14.4709 1.53035 14.517 1.56075C14.563 1.59115 14.6008 1.63251 14.627 1.68112C14.6531 1.72973 14.6668 1.78406 14.6667 1.83925V12.6666L10 14.6666L6.00004 12.6666L1.79804 14.4673C1.74732 14.489 1.69199 14.4978 1.63702 14.4929C1.58205 14.488 1.52916 14.4695 1.4831 14.4391C1.43704 14.4087 1.39924 14.3673 1.37311 14.3187C1.34698 14.2701 1.33333 14.2158 1.33337 14.1606V3.33325ZM10.6667 12.9299L13.3334 11.7873V3.35525L10.6667 4.49792V12.9299ZM9.33337 12.8426V4.49059L6.66671 3.15725V11.5093L9.33337 12.8426ZM5.33337 11.5019V3.06992L2.66671 4.21259V12.6446L5.33337 11.5019Z" fill="#D4070E"/>
</svg>
